<svg width="48" height="30" viewBox="0 0 48 30" fill="none" xmlns="http://www.w3.org/2000/svg">
<path id="Vector" d="M48 0.0209938C43.6364 0.275627 39.2727 0.272918 34.9091 0.0209938V3.01564C39.2312 2.70683 43.6031 2.76643 48 3.03461V0.0209938ZM48 12.3247C42.3792 12.5007 36.7169 12.6971 30.8883 12.3517V15.3518C36.5506 15.0132 42.267 15.1012 48 15.3721V12.3247ZM48 19.9907C44.7262 20.3023 41.467 20.2345 38.2338 19.9637V22.9502C41.4888 22.7876 44.7449 22.7876 48 22.9502V19.9907ZM44.2119 27.8803C44.2119 27.8803 43.4005 25.0766 41.733 24.2572C41.254 24.0405 40.453 23.8576 39.9481 24.054C39.4494 24.264 39.4286 24.7787 39.6052 25.124C40.2286 26.3633 44.2119 27.8803 44.2119 27.8803ZM39.4909 8.23427C39.4909 8.23427 35.0545 9.04693 33.974 10.1372C33.6519 10.4488 33.4961 10.9635 33.9013 11.2411C34.3065 11.5188 35.1481 11.4714 35.6883 11.3359C37.6312 10.8077 39.4909 8.23427 39.4909 8.23427ZM38.774 25.9367C38.7636 25.6252 38.7117 25.334 38.587 25.0902C38.3584 24.6635 37.7455 24.1353 37.0597 24.1556C36.374 24.1624 35.813 24.7109 35.626 25.1579C34.9818 26.7561 37.3506 30 37.3506 30C37.3506 30 38.8052 27.6162 38.774 25.9367ZM36.3636 19.9637C31.4078 20.3835 26.4831 20.4445 21.6104 19.9772V22.9434C26.5351 22.6725 31.4597 22.7064 36.3636 22.957V19.9637ZM34.4 24.5281C34.3896 24.3791 34.3169 24.2369 34.161 24.1285C33.7558 23.8509 32.9143 23.8983 32.374 24.0337C30.4312 24.562 28.5714 27.1354 28.5714 27.1354C28.5714 27.1354 33.0078 26.3227 34.0883 25.2324C34.2649 25.0563 34.4 24.8193 34.4 24.589V24.5281ZM33.1221 7.25908C33.1013 6.37193 32.987 5.68794 32.987 5.68794C32.987 5.68794 29.3922 8.41712 29.3714 10.0695C29.3818 10.5233 29.6935 11.1531 30.3481 11.275C31.0026 11.4172 31.813 11.0176 32.2078 10.6316C32.9143 9.94763 33.1013 8.70832 33.1221 7.64509V7.25908ZM33.039 0.0406329C28.6649 0.339285 24.3013 0.306102 19.9481 0.0270888V3.03528C24.3429 2.77117 28.7169 2.70209 33.039 3.01429V0.0406329ZM29.7143 12.3314C24.3013 12.5549 18.8364 12.5685 13.2987 12.3314V15.3518C18.8571 15.0132 24.3117 15.1012 29.7143 15.3721V12.3314ZM27.3662 7.1575C27.3662 7.1575 25.5065 4.58408 23.5636 4.05585C23.0234 3.9204 22.1818 3.873 21.7766 4.15066C21.3714 4.42832 21.5273 4.943 21.8493 5.25452C22.9299 6.34484 27.3662 7.1575 27.3662 7.1575ZM19.8753 5.42382C19.8545 4.97009 19.5532 4.408 18.9403 4.27933C18.2961 4.13711 17.4753 4.52313 17.0701 4.8956C15.6156 6.24326 16.0935 9.82573 16.0935 9.82573C16.0935 9.82573 19.7922 7.16427 19.8753 5.51186V5.42382ZM19.7403 19.9298C15.9481 20.1194 12.1351 20.1736 8.31169 19.9433V22.9163C12.2597 22.6048 16.0312 22.8012 19.7403 22.957V19.9298ZM18.0779 0.0135444C12.0312 0.281722 6.00519 0.197747 4.47035e-08 0V3.06169C5.99481 2.89307 12.0208 2.75288 18.0779 3.04273V0.0135444ZM15.5013 4.71275C15.4909 4.45541 15.3662 4.20484 15.0545 4.07616C14.5558 3.87977 13.7455 4.06262 13.2675 4.27933C11.6052 5.09876 10.7948 7.90244 10.7948 7.90244C10.7948 7.90244 14.774 6.38547 15.3974 5.14617C15.4597 5.0175 15.5013 4.86173 15.5013 4.71275ZM13.4857 29.0722C13.4857 29.0722 12.9558 25.4897 11.1481 24.3385C10.6493 24.027 9.72467 23.7358 9.13247 23.9592C8.52987 24.1692 8.41558 24.8261 8.56104 25.2798C9.1013 26.8916 13.4857 29.0722 13.4857 29.0722ZM11.4286 12.3653C7.61558 12.6091 3.75065 12.3924 4.47035e-08 12.3179V15.3789C3.71948 15.2638 7.52208 14.9929 11.4286 15.3247V12.3653ZM6.75325 24.6906C6.75325 24.3385 6.51429 23.9389 6.03636 23.8306C5.48571 23.7019 4.76883 23.9931 4.37403 24.2775C3.02338 25.3204 3.16883 28.1647 3.16883 28.1647C3.16883 28.1647 6.54545 26.1263 6.74286 24.8328C6.75325 24.7854 6.75325 24.738 6.75325 24.6906ZM6.44156 19.9501C4.33247 20.0923 2.18182 20.1736 4.47035e-08 19.9907V22.8892C2.19221 22.6996 4.34286 22.7944 6.44156 22.9366V19.9501Z" fill="#1A1A1A"/>
</svg>
